<svg width="1080" height="1080" viewBox="0 0 1080 1080" fill="none" xmlns="http://www.w3.org/2000/svg">
<path fill-rule="evenodd" clip-rule="evenodd" d="M577.564 207.185L539.93 142H539.492L501.858 207.185L436.672 142V251.465H644.061V142H642.749L577.564 207.185Z" fill="#32CD6A"/>
<path fill-rule="evenodd" clip-rule="evenodd" d="M338.647 730.059V329.929H742.087V730.059L540.367 864.172L338.647 730.059ZM540.367 269.282H278V762.565L540.367 937L802.735 762.565V269.282H540.367Z" fill="#35383B"/>
<path fill-rule="evenodd" clip-rule="evenodd" d="M505.264 510.175L533.971 424.972C534.912 422.177 537.419 420.377 540.368 420.377C543.317 420.377 545.824 422.177 546.765 424.972L575.472 510.175C576.415 512.974 578.929 514.778 581.882 514.771L674.692 514.6C677.695 514.595 680.247 516.465 681.146 519.329C682.045 522.196 681.018 525.189 678.55 526.899L603.868 578.676C601.352 580.421 600.336 583.508 601.325 586.405L630.097 670.697C631.057 673.507 630.14 676.487 627.766 678.272C625.392 680.058 622.276 680.113 619.84 678.411L544.236 625.57C541.868 623.915 538.868 623.915 536.5 625.57L460.896 678.411C458.461 680.113 455.345 680.058 452.971 678.272C450.597 676.487 449.679 673.507 450.64 670.697L479.411 586.405C480.4 583.508 479.385 580.421 476.868 578.676L402.186 526.899C399.718 525.189 398.692 522.196 399.591 519.329C400.489 516.465 403.043 514.595 406.045 514.6L498.854 514.771C501.807 514.778 504.32 512.974 505.264 510.175ZM724.271 347.746H356.465V720.509L540.367 842.777L724.271 720.509V347.746Z" fill="#27B978"/>
</svg>
