<svg width="681" height="1032" viewBox="0 0 681 1032" fill="none" xmlns="http://www.w3.org/2000/svg">
<path fill-rule="evenodd" clip-rule="evenodd" d="M388.774 84.5973L339.932 0H339.364L290.522 84.5973L205.925 0V142.064H475.074V0H473.37L388.774 84.5973Z" fill="#32CD6A"/>
<path fill-rule="evenodd" clip-rule="evenodd" d="M78.7082 763.182V243.894H602.291V763.182L340.5 937.233L78.7082 763.182ZM340.5 165.186H0V805.368L340.5 1031.75L681 805.368V165.186H340.5Z" fill="#35383B"/>
<path fill-rule="evenodd" clip-rule="evenodd" d="M294.943 477.817L332.198 367.241C333.419 363.613 336.674 361.277 340.5 361.277C344.328 361.277 347.582 363.613 348.803 367.241L386.059 477.817C387.283 481.45 390.545 483.79 394.377 483.781L514.826 483.559C518.724 483.553 522.035 485.979 523.202 489.697C524.369 493.417 523.036 497.302 519.833 499.521L422.911 566.717C419.645 568.982 418.327 572.988 419.611 576.749L456.951 686.141C458.197 689.789 457.007 693.656 453.926 695.973C450.844 698.291 446.8 698.362 443.639 696.153L345.52 627.577C342.447 625.428 338.554 625.428 335.481 627.577L237.362 696.153C234.202 698.362 230.157 698.291 227.077 695.973C223.996 693.656 222.805 689.789 224.051 686.141L261.391 576.749C262.674 572.988 261.357 568.982 258.091 566.717L161.168 499.521C157.965 497.302 156.633 493.417 157.8 489.697C158.966 485.979 162.28 483.553 166.176 483.559L286.624 483.781C290.456 483.79 293.718 481.45 294.943 477.817ZM579.17 267.017H101.831V750.789L340.5 909.467L579.17 750.789V267.017Z" fill="#27B978"/>
</svg>
